<svg xmlns="http://www.w3.org/2000/svg" viewBox="0 0 32 32">
  <rect width="32" height="32" rx="7" fill="#efedea"/>
  <g fill="none" stroke="#16181c" stroke-width="1.3">
    <path d="M16 6c-4 0-7 3-7 7 0 3 2 5 2 8" opacity="0.7"/>
    <path d="M16 6c4 0 7 3 7 7 0 3-2 5-2 8" opacity="0.7"/>
    <path d="M16 6v6" opacity="0.5"/>
    <path d="M12 24c-1 2-3 3-5 3M20 24c1 2 3 3 5 3M16 22v5" opacity="0.8"/>
  </g>
  <g fill="#f2600c">
    <circle cx="7" cy="27" r="1.6"/>
    <circle cx="25" cy="27" r="1.6"/>
    <circle cx="16" cy="27" r="1.6"/>
  </g>
</svg>
